<svg width="55" height="54" viewBox="0 0 55 54" fill="none" xmlns="http://www.w3.org/2000/svg">
<mask id="path-1-outside-1" maskUnits="userSpaceOnUse" x="0.25" y="-1" width="54" height="55" fill="black">
<rect fill="white" x="0.25" y="-1" width="54" height="55"/>
<path d="M27.25 21.7899C26.6414 21.7899 26.0387 21.9247 25.4765 22.1864C24.9142 22.4482 24.4033 22.8319 23.9729 23.3156C23.5426 23.7993 23.2012 24.3735 22.9683 25.0055C22.7354 25.6374 22.6155 26.3148 22.6155 26.9988C22.6155 27.6829 22.7354 28.3602 22.9683 28.9922C23.2012 29.6241 23.5426 30.1984 23.9729 30.6821C24.4033 31.1657 24.9142 31.5494 25.4765 31.8112C26.0387 32.073 26.6414 32.2077 27.25 32.2077C27.8586 32.2077 28.4613 32.073 29.0235 31.8112C29.5858 31.5494 30.0967 31.1657 30.5271 30.6821C30.9574 30.1984 31.2988 29.6241 31.5317 28.9922C31.7646 28.3602 31.8845 27.6829 31.8845 26.9988C31.8845 26.3148 31.7646 25.6374 31.5317 25.0055C31.2988 24.3735 30.9574 23.7993 30.5271 23.3156C30.0967 22.8319 29.5858 22.4482 29.0235 22.1864C28.4613 21.9247 27.8586 21.7899 27.25 21.7899ZM14.2673 37.3606L13.2447 37.0684C5.62233 34.9035 1.25 31.2288 1.25 26.9891C1.25 22.7494 5.62233 19.0747 13.2447 16.9098L14.2673 16.62L14.5555 17.7597C15.3277 20.7494 16.3153 23.6634 17.5087 26.4728L17.7275 26.9915L17.5087 27.5102C16.3133 30.3186 15.3256 33.2328 14.5555 36.2233L14.2673 37.3606ZM12.7702 19.5715C6.9765 21.4003 3.421 24.1984 3.421 26.9891C3.421 29.7774 6.9765 32.5754 12.7702 34.4067C13.4787 31.8739 14.3342 29.3961 15.3312 26.9891C14.3331 24.5826 13.4775 22.1047 12.7702 19.5715V19.5715ZM40.2327 37.3606L39.9445 36.2185C39.1731 33.2289 38.1847 30.3156 36.9892 27.5078L36.7703 26.9891L36.9892 26.4704C38.1842 23.6615 39.1726 20.7474 39.9445 17.7573L40.2327 16.6176L41.2575 16.9074C48.8777 19.0723 53.25 22.747 53.25 26.9891C53.25 31.2312 48.8777 34.9035 41.2575 37.0684L40.2327 37.3606V37.3606ZM39.1688 26.9891C40.2088 29.5193 41.069 32.0056 41.7298 34.4067C47.5257 32.5754 51.079 29.7774 51.079 26.9891C51.079 24.1984 47.5235 21.4027 41.7298 19.5715C41.0222 22.1046 40.1667 24.5825 39.1688 26.9891V26.9891ZM12.755 19.5593L12.4668 18.4221C10.324 9.93298 10.974 3.84987 14.25 1.72638C17.4632 -0.358143 22.622 2.10384 28.0278 8.34037L28.7645 9.19025L28.0278 10.0401C26.107 12.2844 24.352 14.7008 22.7802 17.2654L22.4877 17.7353L21.9785 17.784C19.2136 18.029 16.471 18.5258 13.7777 19.2695L12.755 19.5593V19.5593ZM16.863 3.41397C16.2823 3.41397 15.7688 3.55521 15.3355 3.83526C13.1818 5.23063 12.8005 10.0815 14.2847 16.6273C16.5935 16.05 18.9334 15.6425 21.2895 15.4073C22.6489 13.2348 24.1341 11.1653 25.7355 9.21217C22.3555 5.51311 19.1553 3.41397 16.863 3.41397V3.41397ZM37.6392 52.9994C37.637 52.9994 37.637 52.9994 37.6392 52.9994C34.5517 52.9994 30.5867 50.3864 26.4722 45.6378L25.7355 44.7879L26.4722 43.938C28.3925 41.693 30.1468 39.2758 31.7177 36.7104L32.0102 36.2404L32.5172 36.1917C35.2835 35.9481 38.0276 35.4521 40.7223 34.7086L41.745 34.4189L42.0353 35.5585C44.1738 44.0427 43.526 50.1283 40.25 52.2493C39.4543 52.755 38.5532 53.0139 37.6392 52.9994V52.9994ZM28.7645 44.766C32.1445 48.4651 35.3447 50.5642 37.637 50.5642H37.6392C38.2177 50.5642 38.7333 50.423 39.1645 50.1429C41.3182 48.7475 41.7017 43.8942 40.2153 37.3484C37.9059 37.9265 35.5652 38.3341 33.2083 38.5684C31.8506 40.7424 30.366 42.8128 28.7645 44.766V44.766ZM41.745 19.5593L40.7223 19.2695C38.0279 18.5237 35.2837 18.0269 32.5172 17.784L32.0102 17.7353L31.7177 17.2654C30.1476 14.7 28.3933 12.2835 26.4722 10.0401L25.7355 9.19025L26.4722 8.34037C31.8758 2.10627 37.0325 -0.355708 40.25 1.72638C43.526 3.84987 44.176 9.93299 42.0353 18.4196L41.745 19.5593ZM33.2083 15.4073C35.6827 15.6606 38.0335 16.0721 40.2153 16.6273C41.7017 10.0815 41.3182 5.23063 39.1645 3.83526C37.0238 2.44477 33.0003 4.57556 28.7645 9.21217C30.3651 11.1654 31.8496 13.2349 33.2083 15.4073V15.4073ZM16.863 52.9994C15.9482 53.0143 15.0464 52.7555 14.25 52.2493C10.974 50.1283 10.324 44.0452 12.4668 35.5585L12.7528 34.4189L13.7755 34.7086C16.278 35.4173 19.0383 35.9165 21.9763 36.1917L22.4855 36.2404L22.7758 36.7104C24.3479 39.2755 26.1029 41.6926 28.0235 43.938L28.7602 44.7879L28.0235 45.6378C23.9112 50.3864 19.9462 52.9994 16.863 52.9994V52.9994ZM14.2847 37.3484C12.7983 43.8942 13.1818 48.7475 15.3355 50.1429C17.474 51.5139 21.4953 49.4002 25.7355 44.766C24.1348 42.8114 22.6496 40.7411 21.2895 38.5684C18.9333 38.3343 16.5934 37.9267 14.2847 37.3484V37.3484ZM27.25 38.8777C25.4668 38.8777 23.6338 38.79 21.7987 38.6196L21.2895 38.5709L20.997 38.1009C19.959 36.4245 18.9831 34.7005 18.072 32.9334C17.1636 31.1649 16.3207 29.3548 15.5457 27.5078L15.329 26.9891L15.5457 26.4704C16.3206 24.6233 17.1635 22.8132 18.072 21.0448C18.969 19.3012 19.9548 17.5624 20.997 15.8773L21.2895 15.4073L21.7987 15.3586C25.4271 15.0128 29.0751 15.0128 32.7035 15.3586L33.2105 15.4073L33.5008 15.8773C35.579 19.2307 37.4033 22.7742 38.9543 26.4704L39.1732 26.9891L38.9543 27.5078C37.407 31.2062 35.5826 34.75 33.5008 38.1009L33.2105 38.5709L32.7035 38.6196C30.8683 38.79 29.0332 38.8777 27.25 38.8777V38.8777ZM22.4898 36.2379C25.6965 36.5083 28.8035 36.5083 32.0123 36.2379C33.8038 33.2944 35.3943 30.2026 36.7703 26.9891C35.3968 23.7736 33.8054 20.6815 32.0102 17.7402C28.8413 17.4699 25.6587 17.4699 22.4898 17.7402C20.6938 20.681 19.1024 23.7731 17.7297 26.9891C19.1071 30.2022 20.6984 33.294 22.4898 36.2379V36.2379Z"/>
</mask>
<path d="M27.25 21.7899C26.6414 21.7899 26.0387 21.9247 25.4765 22.1864C24.9142 22.4482 24.4033 22.8319 23.9729 23.3156C23.5426 23.7993 23.2012 24.3735 22.9683 25.0055C22.7354 25.6374 22.6155 26.3148 22.6155 26.9988C22.6155 27.6829 22.7354 28.3602 22.9683 28.9922C23.2012 29.6241 23.5426 30.1984 23.9729 30.6821C24.4033 31.1657 24.9142 31.5494 25.4765 31.8112C26.0387 32.073 26.6414 32.2077 27.25 32.2077C27.8586 32.2077 28.4613 32.073 29.0235 31.8112C29.5858 31.5494 30.0967 31.1657 30.5271 30.6821C30.9574 30.1984 31.2988 29.6241 31.5317 28.9922C31.7646 28.3602 31.8845 27.6829 31.8845 26.9988C31.8845 26.3148 31.7646 25.6374 31.5317 25.0055C31.2988 24.3735 30.9574 23.7993 30.5271 23.3156C30.0967 22.8319 29.5858 22.4482 29.0235 22.1864C28.4613 21.9247 27.8586 21.7899 27.25 21.7899ZM14.2673 37.3606L13.2447 37.0684C5.62233 34.9035 1.25 31.2288 1.25 26.9891C1.25 22.7494 5.62233 19.0747 13.2447 16.9098L14.2673 16.62L14.5555 17.7597C15.3277 20.7494 16.3153 23.6634 17.5087 26.4728L17.7275 26.9915L17.5087 27.5102C16.3133 30.3186 15.3256 33.2328 14.5555 36.2233L14.2673 37.3606ZM12.7702 19.5715C6.9765 21.4003 3.421 24.1984 3.421 26.9891C3.421 29.7774 6.9765 32.5754 12.7702 34.4067C13.4787 31.8739 14.3342 29.3961 15.3312 26.9891C14.3331 24.5826 13.4775 22.1047 12.7702 19.5715V19.5715ZM40.2327 37.3606L39.9445 36.2185C39.1731 33.2289 38.1847 30.3156 36.9892 27.5078L36.7703 26.9891L36.9892 26.4704C38.1842 23.6615 39.1726 20.7474 39.9445 17.7573L40.2327 16.6176L41.2575 16.9074C48.8777 19.0723 53.25 22.747 53.25 26.9891C53.25 31.2312 48.8777 34.9035 41.2575 37.0684L40.2327 37.3606V37.3606ZM39.1688 26.9891C40.2088 29.5193 41.069 32.0056 41.7298 34.4067C47.5257 32.5754 51.079 29.7774 51.079 26.9891C51.079 24.1984 47.5235 21.4027 41.7298 19.5715C41.0222 22.1046 40.1667 24.5825 39.1688 26.9891V26.9891ZM12.755 19.5593L12.4668 18.4221C10.324 9.93298 10.974 3.84987 14.25 1.72638C17.4632 -0.358143 22.622 2.10384 28.0278 8.34037L28.7645 9.19025L28.0278 10.0401C26.107 12.2844 24.352 14.7008 22.7802 17.2654L22.4877 17.7353L21.9785 17.784C19.2136 18.029 16.471 18.5258 13.7777 19.2695L12.755 19.5593V19.5593ZM16.863 3.41397C16.2823 3.41397 15.7688 3.55521 15.3355 3.83526C13.1818 5.23063 12.8005 10.0815 14.2847 16.6273C16.5935 16.05 18.9334 15.6425 21.2895 15.4073C22.6489 13.2348 24.1341 11.1653 25.7355 9.21217C22.3555 5.51311 19.1553 3.41397 16.863 3.41397V3.41397ZM37.6392 52.9994C37.637 52.9994 37.637 52.9994 37.6392 52.9994C34.5517 52.9994 30.5867 50.3864 26.4722 45.6378L25.7355 44.7879L26.4722 43.938C28.3925 41.693 30.1468 39.2758 31.7177 36.7104L32.0102 36.2404L32.5172 36.1917C35.2835 35.9481 38.0276 35.4521 40.7223 34.7086L41.745 34.4189L42.0353 35.5585C44.1738 44.0427 43.526 50.1283 40.25 52.2493C39.4543 52.755 38.5532 53.0139 37.6392 52.9994V52.9994ZM28.7645 44.766C32.1445 48.4651 35.3447 50.5642 37.637 50.5642H37.6392C38.2177 50.5642 38.7333 50.423 39.1645 50.1429C41.3182 48.7475 41.7017 43.8942 40.2153 37.3484C37.9059 37.9265 35.5652 38.3341 33.2083 38.5684C31.8506 40.7424 30.366 42.8128 28.7645 44.766V44.766ZM41.745 19.5593L40.7223 19.2695C38.0279 18.5237 35.2837 18.0269 32.5172 17.784L32.0102 17.7353L31.7177 17.2654C30.1476 14.7 28.3933 12.2835 26.4722 10.0401L25.7355 9.19025L26.4722 8.34037C31.8758 2.10627 37.0325 -0.355708 40.25 1.72638C43.526 3.84987 44.176 9.93299 42.0353 18.4196L41.745 19.5593ZM33.2083 15.4073C35.6827 15.6606 38.0335 16.0721 40.2153 16.6273C41.7017 10.0815 41.3182 5.23063 39.1645 3.83526C37.0238 2.44477 33.0003 4.57556 28.7645 9.21217C30.3651 11.1654 31.8496 13.2349 33.2083 15.4073V15.4073ZM16.863 52.9994C15.9482 53.0143 15.0464 52.7555 14.25 52.2493C10.974 50.1283 10.324 44.0452 12.4668 35.5585L12.7528 34.4189L13.7755 34.7086C16.278 35.4173 19.0383 35.9165 21.9763 36.1917L22.4855 36.2404L22.7758 36.7104C24.3479 39.2755 26.1029 41.6926 28.0235 43.938L28.7602 44.7879L28.0235 45.6378C23.9112 50.3864 19.9462 52.9994 16.863 52.9994V52.9994ZM14.2847 37.3484C12.7983 43.8942 13.1818 48.7475 15.3355 50.1429C17.474 51.5139 21.4953 49.4002 25.7355 44.766C24.1348 42.8114 22.6496 40.7411 21.2895 38.5684C18.9333 38.3343 16.5934 37.9267 14.2847 37.3484V37.3484ZM27.25 38.8777C25.4668 38.8777 23.6338 38.79 21.7987 38.6196L21.2895 38.5709L20.997 38.1009C19.959 36.4245 18.9831 34.7005 18.072 32.9334C17.1636 31.1649 16.3207 29.3548 15.5457 27.5078L15.329 26.9891L15.5457 26.4704C16.3206 24.6233 17.1635 22.8132 18.072 21.0448C18.969 19.3012 19.9548 17.5624 20.997 15.8773L21.2895 15.4073L21.7987 15.3586C25.4271 15.0128 29.0751 15.0128 32.7035 15.3586L33.2105 15.4073L33.5008 15.8773C35.579 19.2307 37.4033 22.7742 38.9543 26.4704L39.1732 26.9891L38.9543 27.5078C37.407 31.2062 35.5826 34.75 33.5008 38.1009L33.2105 38.5709L32.7035 38.6196C30.8683 38.79 29.0332 38.8777 27.25 38.8777V38.8777ZM22.4898 36.2379C25.6965 36.5083 28.8035 36.5083 32.0123 36.2379C33.8038 33.2944 35.3943 30.2026 36.7703 26.9891C35.3968 23.7736 33.8054 20.6815 32.0102 17.7402C28.8413 17.4699 25.6587 17.4699 22.4898 17.7402C20.6938 20.681 19.1024 23.7731 17.7297 26.9891C19.1071 30.2022 20.6984 33.294 22.4898 36.2379V36.2379Z" fill="#2BC2EB"/>
<path d="M27.25 21.7899C26.6414 21.7899 26.0387 21.9247 25.4765 22.1864C24.9142 22.4482 24.4033 22.8319 23.9729 23.3156C23.5426 23.7993 23.2012 24.3735 22.9683 25.0055C22.7354 25.6374 22.6155 26.3148 22.6155 26.9988C22.6155 27.6829 22.7354 28.3602 22.9683 28.9922C23.2012 29.6241 23.5426 30.1984 23.9729 30.6821C24.4033 31.1657 24.9142 31.5494 25.4765 31.8112C26.0387 32.073 26.6414 32.2077 27.25 32.2077C27.8586 32.2077 28.4613 32.073 29.0235 31.8112C29.5858 31.5494 30.0967 31.1657 30.5271 30.6821C30.9574 30.1984 31.2988 29.6241 31.5317 28.9922C31.7646 28.3602 31.8845 27.6829 31.8845 26.9988C31.8845 26.3148 31.7646 25.6374 31.5317 25.0055C31.2988 24.3735 30.9574 23.7993 30.5271 23.3156C30.0967 22.8319 29.5858 22.4482 29.0235 22.1864C28.4613 21.9247 27.8586 21.7899 27.25 21.7899ZM14.2673 37.3606L13.2447 37.0684C5.62233 34.9035 1.25 31.2288 1.25 26.9891C1.25 22.7494 5.62233 19.0747 13.2447 16.9098L14.2673 16.62L14.5555 17.7597C15.3277 20.7494 16.3153 23.6634 17.5087 26.4728L17.7275 26.9915L17.5087 27.5102C16.3133 30.3186 15.3256 33.2328 14.5555 36.2233L14.2673 37.3606ZM12.7702 19.5715C6.9765 21.4003 3.421 24.1984 3.421 26.9891C3.421 29.7774 6.9765 32.5754 12.7702 34.4067C13.4787 31.8739 14.3342 29.3961 15.3312 26.9891C14.3331 24.5826 13.4775 22.1047 12.7702 19.5715V19.5715ZM40.2327 37.3606L39.9445 36.2185C39.1731 33.2289 38.1847 30.3156 36.9892 27.5078L36.7703 26.9891L36.9892 26.4704C38.1842 23.6615 39.1726 20.7474 39.9445 17.7573L40.2327 16.6176L41.2575 16.9074C48.8777 19.0723 53.25 22.747 53.25 26.9891C53.25 31.2312 48.8777 34.9035 41.2575 37.0684L40.2327 37.3606V37.3606ZM39.1688 26.9891C40.2088 29.5193 41.069 32.0056 41.7298 34.4067C47.5257 32.5754 51.079 29.7774 51.079 26.9891C51.079 24.1984 47.5235 21.4027 41.7298 19.5715C41.0222 22.1046 40.1667 24.5825 39.1688 26.9891V26.9891ZM12.755 19.5593L12.4668 18.4221C10.324 9.93298 10.974 3.84987 14.25 1.72638C17.4632 -0.358143 22.622 2.10384 28.0278 8.34037L28.7645 9.19025L28.0278 10.0401C26.107 12.2844 24.352 14.7008 22.7802 17.2654L22.4877 17.7353L21.9785 17.784C19.2136 18.029 16.471 18.5258 13.7777 19.2695L12.755 19.5593V19.5593ZM16.863 3.41397C16.2823 3.41397 15.7688 3.55521 15.3355 3.83526C13.1818 5.23063 12.8005 10.0815 14.2847 16.6273C16.5935 16.05 18.9334 15.6425 21.2895 15.4073C22.6489 13.2348 24.1341 11.1653 25.7355 9.21217C22.3555 5.51311 19.1553 3.41397 16.863 3.41397V3.41397ZM37.6392 52.9994C37.637 52.9994 37.637 52.9994 37.6392 52.9994C34.5517 52.9994 30.5867 50.3864 26.4722 45.6378L25.7355 44.7879L26.4722 43.938C28.3925 41.693 30.1468 39.2758 31.7177 36.7104L32.0102 36.2404L32.5172 36.1917C35.2835 35.9481 38.0276 35.4521 40.7223 34.7086L41.745 34.4189L42.0353 35.5585C44.1738 44.0427 43.526 50.1283 40.25 52.2493C39.4543 52.755 38.5532 53.0139 37.6392 52.9994V52.9994ZM28.7645 44.766C32.1445 48.4651 35.3447 50.5642 37.637 50.5642H37.6392C38.2177 50.5642 38.7333 50.423 39.1645 50.1429C41.3182 48.7475 41.7017 43.8942 40.2153 37.3484C37.9059 37.9265 35.5652 38.3341 33.2083 38.5684C31.8506 40.7424 30.366 42.8128 28.7645 44.766V44.766ZM41.745 19.5593L40.7223 19.2695C38.0279 18.5237 35.2837 18.0269 32.5172 17.784L32.0102 17.7353L31.7177 17.2654C30.1476 14.7 28.3933 12.2835 26.4722 10.0401L25.7355 9.19025L26.4722 8.34037C31.8758 2.10627 37.0325 -0.355708 40.25 1.72638C43.526 3.84987 44.176 9.93299 42.0353 18.4196L41.745 19.5593ZM33.2083 15.4073C35.6827 15.6606 38.0335 16.0721 40.2153 16.6273C41.7017 10.0815 41.3182 5.23063 39.1645 3.83526C37.0238 2.44477 33.0003 4.57556 28.7645 9.21217C30.3651 11.1654 31.8496 13.2349 33.2083 15.4073V15.4073ZM16.863 52.9994C15.9482 53.0143 15.0464 52.7555 14.25 52.2493C10.974 50.1283 10.324 44.0452 12.4668 35.5585L12.7528 34.4189L13.7755 34.7086C16.278 35.4173 19.0383 35.9165 21.9763 36.1917L22.4855 36.2404L22.7758 36.7104C24.3479 39.2755 26.1029 41.6926 28.0235 43.938L28.7602 44.7879L28.0235 45.6378C23.9112 50.3864 19.9462 52.9994 16.863 52.9994V52.9994ZM14.2847 37.3484C12.7983 43.8942 13.1818 48.7475 15.3355 50.1429C17.474 51.5139 21.4953 49.4002 25.7355 44.766C24.1348 42.8114 22.6496 40.7411 21.2895 38.5684C18.9333 38.3343 16.5934 37.9267 14.2847 37.3484V37.3484ZM27.25 38.8777C25.4668 38.8777 23.6338 38.79 21.7987 38.6196L21.2895 38.5709L20.997 38.1009C19.959 36.4245 18.9831 34.7005 18.072 32.9334C17.1636 31.1649 16.3207 29.3548 15.5457 27.5078L15.329 26.9891L15.5457 26.4704C16.3206 24.6233 17.1635 22.8132 18.072 21.0448C18.969 19.3012 19.9548 17.5624 20.997 15.8773L21.2895 15.4073L21.7987 15.3586C25.4271 15.0128 29.0751 15.0128 32.7035 15.3586L33.2105 15.4073L33.5008 15.8773C35.579 19.2307 37.4033 22.7742 38.9543 26.4704L39.1732 26.9891L38.9543 27.5078C37.407 31.2062 35.5826 34.75 33.5008 38.1009L33.2105 38.5709L32.7035 38.6196C30.8683 38.79 29.0332 38.8777 27.25 38.8777V38.8777ZM22.4898 36.2379C25.6965 36.5083 28.8035 36.5083 32.0123 36.2379C33.8038 33.2944 35.3943 30.2026 36.7703 26.9891C35.3968 23.7736 33.8054 20.6815 32.0102 17.7402C28.8413 17.4699 25.6587 17.4699 22.4898 17.7402C20.6938 20.681 19.1024 23.7731 17.7297 26.9891C19.1071 30.2022 20.6984 33.294 22.4898 36.2379V36.2379Z" stroke="#61DAFB" stroke-width="2" mask="url(#path-1-outside-1)"/>
</svg>
